<svg version="1.1" id="Layer_1" xmlns="http://www.w3.org/2000/svg" xmlns:xlink="http://www.w3.org/1999/xlink" x="0px" y="0px"
	 width="100%" viewBox="120 100 400 400" enable-background="new 0 0 800 800" xml:space="preserve">
<path fill="#fff" opacity="1.000000" stroke="none" 
	d="
M282.700256,107.970688 
	C295.391998,109.256805 307.625519,110.487938 319.863373,111.674522 
	C336.071777,113.246094 352.283997,114.779167 368.493713,116.337433 
	C371.966919,116.671318 375.438477,117.024292 378.907227,117.401474 
	C382.022369,117.740196 384.757172,118.402054 385.450317,122.266190 
	C386.164948,126.250374 383.776520,128.006439 380.944672,129.716629 
	C362.412537,140.908401 343.888855,152.114151 325.375916,163.337646 
	C308.999084,173.266144 292.394073,182.848709 276.385773,193.340729 
	C269.334534,197.962173 262.489349,199.245667 254.381027,198.306274 
	C234.730179,196.029633 215.018234,194.280624 195.332748,192.300919 
	C194.550995,192.222321 193.787811,191.959137 192.967896,191.770935 
	C192.973511,188.987213 195.262115,188.435379 196.758347,187.400726 
	C216.071762,174.045074 235.083572,160.235809 255.302048,148.231812 
	C258.535400,146.312119 260.476410,143.561569 258.395203,139.948456 
	C256.336853,136.374985 252.920654,136.508865 249.656662,138.340469 
	C234.674072,146.748001 220.644699,156.637726 206.555099,166.414261 
	C198.487961,172.011932 190.685822,177.993835 182.806778,183.859711 
	C169.766098,193.568283 168.987808,207.264053 170.657959,221.701309 
	C170.883423,223.650269 172.327820,224.761765 173.923996,225.852905 
	C180.363266,230.254745 182.257950,236.776993 178.844650,243.636841 
	C177.666199,246.005188 177.851929,247.813843 178.654160,250.181656 
	C182.753220,262.280090 187.671066,274.229736 187.297638,287.356812 
	C187.088013,294.724915 184.674728,301.356750 180.044968,307.148529 
	C176.662796,311.379639 172.553665,313.531311 166.952591,312.345184 
	C162.724121,311.449738 158.466522,310.731140 154.387756,309.236115 
	C149.228851,307.345154 148.678101,306.292511 151.601486,301.721252 
	C157.706970,292.174194 161.645477,281.898712 163.202850,270.654236 
	C163.963394,265.162964 163.504929,259.686829 163.612167,254.204300 
	C163.659866,251.765854 161.880844,250.898972 160.082047,249.872681 
	C151.985962,245.253479 149.913254,236.621368 155.252502,229.039246 
	C156.816360,226.818466 157.159729,224.860184 156.915085,222.177094 
	C155.930084,211.374634 155.787201,200.577667 160.173279,190.121063 
	C155.728348,187.259918 150.849457,188.451874 146.412933,187.517532 
	C142.213303,186.633087 137.819962,186.615265 133.503403,186.356140 
	C130.117310,186.152893 127.053795,185.363586 126.062614,181.703568 
	C125.050621,177.966629 127.462303,175.897995 130.353806,174.144608 
	C158.124481,157.304703 185.877426,140.435562 213.633804,123.572060 
	C219.896667,119.767014 226.571411,116.488312 232.314194,112.014404 
	C240.884109,105.338013 250.110519,104.124130 260.414673,105.764977 
	C267.621490,106.912590 274.962769,107.215622 282.700256,107.970688 
z"/>
<path fill="#fff" opacity="1.000000" stroke="none" 
	d="
M200.343506,253.825989 
	C196.541565,252.146194 195.491043,250.203995 197.094330,246.222275 
	C200.618271,237.470734 196.616760,227.019470 188.463852,221.984558 
	C183.980606,219.215851 181.042969,210.731857 182.859131,205.971985 
	C183.445450,204.435364 184.512253,204.070923 185.997391,204.212402 
	C199.898529,205.536514 213.802872,206.827148 227.703049,208.161041 
	C239.616394,209.304291 251.528473,210.462509 263.435059,211.673615 
	C268.147980,212.153000 272.182831,210.651138 276.155365,208.222534 
	C298.038422,194.844452 319.992950,181.583298 341.926758,168.288361 
	C343.311249,167.449188 344.561829,166.166412 347.182800,166.932205 
	C349.852112,179.236572 352.894226,191.798172 355.210358,204.492233 
	C356.566742,211.926071 352.057007,217.593430 347.243500,222.556122 
	C337.323608,232.783524 325.070587,239.583618 312.036469,244.858551 
	C286.645813,255.134109 260.289551,260.836365 232.761337,260.312439 
	C221.701797,260.101929 210.903915,258.508179 200.343506,253.825989 
z"/>
<path fill="#fff" opacity="1.000000" stroke="none" 
	d="
M303.236084,355.055878 
	C298.544464,362.974396 293.010132,369.604431 283.258362,369.052521 
	C273.438049,368.496643 267.784943,361.405975 264.207642,353.341522 
	C254.448242,331.340454 254.437103,309.258087 265.454346,287.515289 
	C267.059326,284.347809 269.339233,281.704224 271.913177,279.328033 
	C279.179901,272.619629 289.528381,272.799622 296.657410,279.714630 
	C304.692413,287.508392 308.056061,297.590759 309.858276,308.178741 
	C312.601898,324.297363 310.872162,339.945984 303.236084,355.055878 
M282.287933,302.989899 
	C281.887512,310.016479 281.592041,317.050598 286.718201,322.805206 
	C290.083923,326.583557 293.494873,326.559448 296.932648,322.937927 
	C303.400818,316.124023 303.356964,298.492767 296.855164,291.797028 
	C293.501495,288.343323 289.715973,288.427490 286.583160,292.147614 
	C284.166809,295.016998 283.048370,298.490753 282.287933,302.989899 
z"/>
<path fill="#fff" opacity="1.000000" stroke="none" 
	d="
M462.405762,344.326385 
	C457.311523,326.575806 457.841888,309.474762 464.748047,292.675629 
	C466.539795,288.317200 468.972839,284.372864 472.180939,280.917969 
	C480.122925,272.364899 491.413361,272.226471 499.441162,280.696869 
	C507.360291,289.052612 510.537445,299.568176 511.997437,310.565735 
	C513.863464,324.621338 512.648743,338.428223 506.800079,351.593536 
	C504.810883,356.071259 502.129028,360.056091 498.687561,363.495514 
	C490.951904,371.226440 480.001099,370.965851 472.601532,362.902527 
	C467.789215,357.658600 464.512482,351.535645 462.405762,344.326385 
M482.951752,291.499664 
	C478.224457,288.245728 474.898315,288.582153 472.149994,293.202271 
	C467.042755,301.787872 466.770020,310.817688 470.956848,319.829590 
	C472.359375,322.848419 474.555481,325.726593 478.413147,325.535858 
	C482.154541,325.350891 484.309570,322.556976 485.625824,319.431519 
	C489.606873,309.978638 489.424896,300.756226 482.951752,291.499664 
z"/>
<path fill="#fff" opacity="1.000000" stroke="none" 
	d="
M383.711548,434.965820 
	C367.685455,430.085083 358.319214,418.402405 350.459808,405.103210 
	C348.942108,402.535004 347.605286,399.820526 346.527771,397.040649 
	C344.817230,392.627686 346.556091,388.999054 350.332916,386.812561 
	C354.058655,384.655609 358.094421,384.785614 361.203003,388.324188 
	C362.495178,389.795166 363.405304,391.634583 364.329163,393.390625 
	C368.082550,400.524872 372.630798,407.020203 378.863434,412.250000 
	C387.173370,419.222839 393.585876,419.330109 401.977905,412.265808 
	C409.514343,405.921814 414.477509,397.631744 418.896515,388.995178 
	C420.957428,384.967285 423.803101,382.339172 428.651001,382.630035 
	C434.206421,382.963409 438.728149,388.476715 436.380219,393.443298 
	C428.093903,410.971436 418.215118,427.269318 398.451935,434.255768 
	C393.736877,435.922638 388.933868,435.355927 383.711548,434.965820 
z"/>

</svg>